<svg xmlns="http://www.w3.org/2000/svg" version="1.1" xmlns:xlink="http://www.w3.org/1999/xlink" width="1500" height="1500" viewBox="0 0 1500 1500"><rect width="1500" height="1500" x="0" y="0" id="background" stroke="transparent" fill="#d8ff75"></rect><svg xml:space="preserve" width="1000" height="1000" data-version="2" data-id="lg_G4Vqh74fDTbZfn64k4" viewBox="0 0 539 268" x="250" y="250"><rect width="100%" height="100%" fill="transparent"></rect><path fill="#1e1e1e" d="M105.24 2.375q79.71 0 129.69 19.82 17.75 35.52 17.75 71.86 0 46.67-31.8 80.95-46.25 49.15-125.14 49.15-27.25 0-73.92-6.2-16.11-83.01-16.11-153.22 0-24.37 2.48-52.86 66.49-9.5 97.05-9.5m12.39 30.97q-7.43 77.65-7.43 111.3 0 33.66 1.24 54.73 22.3-11.98 34.9-40.27 12.59-28.29 12.59-57.41 0-29.11-10.53-47.7-10.53-18.58-30.77-20.65"></path><rect width="246.97" height="221.78" x="-123.48" y="-110.89" fill="none" rx="0" ry="0" transform="translate(129.7 113.77)"></rect><path fill="#1e1e1e" d="M446.38 36.655q-16.52-2.48-35.31-2.48-18.79 0-36.55 2.48 11.15 18.99 26.43 30.97t38.62 23.75q23.33 11.77 37.99 21.68 14.66 9.91 32.42 32.63 17.76 22.71 22.31 47.49-19.83 25.61-52.46 45.23-32.62 19.61-66.9 26.22-23.13-2.06-58.44-13.01-35.31-10.94-53.07-10.94-17.76 0-35.52 11.15 7.43-21.06 24.37-52.87h3.3q26.43 0 49.77 8.26 23.33 8.26 42.54 16.52 19.2 8.26 30.97 8.26t17.14-1.65q0-27.26-16.93-45.01-9.09-9.5-15.49-14.67-6.4-5.16-19.62-14.24l-7.02-4.96q-28.08-19.41-46.25-39.44-18.18-20.03-26.44-49.36 13.22-29.32 26.02-50.79 39.24-9.5 81.36-9.5h18.18q35.51 0 81.36 9.91-6.61 27.26-16.11 49.15-34.69 2.47-53.69 2.47 3.72-9.5 7.02-27.25"></path><rect width="266.39" height="262.25" x="-133.19" y="-131.13" fill="none" rx="0" ry="0" transform="translate(399.6 134)"></rect></svg></svg>